PathFileType	4	(X/Y/Z)	Patient4_TMGait_0pt4_01_right_41.trc.trc
DataRate	CameraRate	NumFrames	NumMarkers	Units	OrigDataRate	OrigDataStartFrame	OrigNumFrames
75.268817204301	75.268817204301	6	33	mm	75.268817204301	18	       141
Frame#	Time	Sacral			L.Shoulder			Chest			R.Shoulder			Neck			R.ASIS			L.ASIS			R.Thigh.Superior			R.Thigh.Lateral			R.Thigh.Inferior			R.Patella			L.Thigh.Superior			L.Thigh.Lateral			L.Thigh.Inferior			L.Patella			L.Shank.Superior			L.Shank.Lateral			L.Shank.Inferior			R.Shank.Superior			R.Shank.Lateral			R.Shank.Inferior			R.Heel			R.Midfoot.Superior			R.Midfoot.Lateral			R.Toe			L.Heel			L.Midfoot.Lateral			L.Midfoot.Superior			L.Toe			L.Elbow			L.Wrist			R.Elbow			R.Wrist			
		X1	Y1	Z1	X2	Y2	Z2	X3	Y3	Z3	X4	Y4	Z4	X5	Y5	Z5	X6	Y6	Z6	X7	Y7	Z7	X8	Y8	Z8	X9	Y9	Z9	X10	Y10	Z10	X11	Y11	Z11	X12	Y12	Z12	X13	Y13	Z13	X14	Y14	Z14	X15	Y15	Z15	X16	Y16	Z16	X17	Y17	Z17	X18	Y18	Z18	X19	Y19	Z19	X20	Y20	Z20	X21	Y21	Z21	X22	Y22	Z22	X23	Y23	Z23	X24	Y24	Z24	X25	Y25	Z25	X26	Y26	Z26	X27	Y27	Z27	X28	Y28	Z28	X29	Y29	Z29	X30	Y30	Z30	X31	Y31	Z31	X32	Y32	Z32	X33	Y33	Z33	

18	53.695857142857	829.185430025637	1011.655314345037	439.037516140239	1047.759571027575	1431.585316831685	265.770879760526	1126.209355639838	1363.198139143688	439.383376275503	1024.060021954967	1442.628306727572	600.061631425598	1007.382649957318	1495.734617995326	418.887763049728	1046.736261543673	947.764997825926	577.147280037497	1055.391082180603	960.006248699560	301.286269974516	1123.145283028568	772.812930427402	547.422036951328	1078.328857485625	652.357380216101	622.742619301484	1165.051123279521	613.529223705034	542.345809309863	1196.981025409245	526.715170768419	560.145997457452	1067.521201545466	735.796690622340	329.850256585506	962.063433765290	637.194836776482	258.903566651825	1025.895299379098	546.585118740656	324.599150043796	1013.696263854604	481.111830433454	332.408307129378	984.559430289503	412.816723904848	321.481167296832	888.924751477849	305.250282510078	268.440973116840	931.331613109800	190.010943774665	338.273441836336	1171.036560950264	436.612949156080	571.549536278984	1107.242498522462	332.195611770776	641.679742883571	1160.421171330727	236.717210056672	588.207803221682	1044.521290681139	58.326938694024	572.611456965647	1214.375271050742	123.236328294773	601.161358001139	1133.229071358865	52.327902005596	641.156398736869	1336.842172261368	79.437838886639	620.423194989949	797.307993763174	38.730841677165	382.100595941478	866.452768447321	34.976795723247	297.417908452259	951.272526893136	95.502128837167	321.405987710475	1078.147746897231	43.387405182102	285.004814171564	1101.987874682953	1099.477103047160	120.909364595612	1341.711891878530	1003.252848848439	152.285771127703	907.732559543953	1113.061034339852	708.651955679824	905.143795916188	852.930210592095	726.524553655912	
19	53.709142857143	831.354114793173	1010.687214729286	440.813884554075	1049.284879604612	1430.609510949038	268.144848798089	1127.581220745685	1362.423912463059	441.851389500368	1025.225300342747	1441.956781184697	602.305121232435	1008.537487977320	1494.839568810177	421.075223452635	1048.532258468870	946.323238149147	579.521077070906	1057.654359159364	959.198752109228	303.526969898263	1123.188595820142	769.952493906793	550.274738799396	1075.808639476373	649.344772587740	624.119447065163	1163.195005895026	610.671032612191	544.477288138721	1193.806647948525	524.805800936319	560.964127859400	1067.601507925901	734.392050250329	331.529039475225	960.933324272966	636.887856399030	260.124982236881	1023.537452625405	545.562330933330	325.794434497676	1010.769240601642	480.152779228473	333.316779258362	981.212710859877	412.132295892570	322.255583656261	884.782122402981	305.288588284476	268.877412070917	926.446357891750	189.567215513986	338.458400615055	1169.929447632293	434.460795076954	572.333992020841	1107.836003545368	328.188496944434	641.217079367128	1163.816660102146	234.196737139626	587.632846353241	1052.191149347001	53.410631900950	569.946702703107	1220.453746733809	121.409064310189	600.363194833909	1140.287106334889	49.114561637475	639.385989049983	1343.694649799182	79.929645781233	620.636051590696	791.906462725642	38.554066356081	382.067434452186	861.043608201434	34.844656051083	297.381764912282	945.826830637067	95.455403565526	321.405470883929	1072.736800426131	43.328217052978	285.005395337091	1105.977962667330	1099.195576949676	123.443180566134	1346.892908444292	1007.353327061579	156.908220517595	905.485995210713	1114.014935602010	710.922296581106	900.007327724904	853.958247199289	728.281625538565	
20	53.722428571429	833.841449355631	1009.426746518721	442.968575815976	1050.493503465379	1429.524053054611	270.658829646700	1128.863313047199	1361.697893134209	444.416146901558	1026.302010400149	1441.184350589758	604.731228825042	1009.495796335282	1493.826543017641	423.430639714166	1050.815445691122	944.763968710236	582.041024140400	1060.173225533967	958.320373408660	305.958241946228	1123.902437000707	766.948221895907	553.198421720933	1073.848904217999	646.196136109010	625.326848617489	1161.892390493493	607.655759602927	546.449814970714	1190.809697070751	522.377251016817	561.639093610081	1068.123550921530	732.913591843918	333.413432457203	960.315940706212	636.416067241949	261.595432498079	1021.830163677950	544.416516591708	327.177515083744	1008.561633954882	478.938410499276	334.372141972073	978.398315408965	411.215344037615	323.187632291237	880.933698366396	305.284342906830	269.472424255826	921.675701215573	188.978602457393	338.719818354745	1168.469319873100	431.824124195958	572.943232689708	1107.285186081307	324.195590258729	640.437486883181	1165.363982883825	231.398487595957	586.784105583291	1056.665908176058	49.536957979350	566.845439482106	1223.652017983529	119.017495800944	599.484045957444	1143.907868595868	46.289386061120	637.336744173470	1347.284173239316	78.742860793829	620.797773174124	786.475308876216	38.287925283850	382.039511196752	855.621318678163	34.658817512664	297.356431420512	940.363358491992	95.394648639197	321.420353605645	1067.331322647224	43.251479784949	285.003431331716	1109.623096734569	1098.651466327733	126.320015954697	1351.455248715686	1010.492105484786	161.617382383372	903.909923464890	1114.639356211123	713.435442284788	896.373038976094	854.609977320953	730.126949266482	
21	53.735714285714	836.600239477481	1007.912409971415	445.478858051094	1051.409393099041	1428.354598448075	273.311647524425	1130.066214582154	1361.035482272131	447.081833133497	1027.289866507450	1440.315886834432	607.344407496141	1010.273454566178	1492.717110612176	425.962034656005	1053.548468099727	943.132141516316	584.683617182445	1062.923775761480	957.385739792921	308.567894234728	1125.294879869326	763.866938911457	556.158153440623	1072.498645880823	643.029340573930	626.390447630777	1161.155948461916	604.560749723802	548.263784680890	1188.089559782337	519.541335050626	562.196684803974	1069.136994591702	731.372607135881	335.497756332888	960.296004127655	635.749284470548	263.334027576270	1020.907514621381	543.129075560717	328.760376799958	1007.227966315578	477.427205934561	335.584899177894	976.228554449323	410.038222114469	324.293795892828	877.468677189494	305.248287922156	270.249794255725	917.063858818218	188.250058049972	339.072120811598	1166.785205609367	428.809861027661	573.397449609489	1105.831274270857	320.277786060983	639.486176473818	1165.277706324310	228.355317082837	585.743220909973	1058.146997134131	46.608207218302	563.594187478600	1224.213933114620	116.119275179775	598.600114826177	1144.423530835468	43.829820759533	635.180491524024	1347.983140396564	76.011768946680	620.802134883820	781.015509616954	37.966786985138	382.010182197062	850.193463253925	34.434127662160	297.344914151759	934.905978950757	95.322292731805	321.450958510142	1061.945594712620	43.140103575914	284.997036762862	1112.874010787662	1097.844811824053	129.522514059525	1355.392811959595	1012.657759579127	166.392970727842	903.055437152749	1114.870694875491	716.158101749374	894.221672843742	854.817092701511	732.119367958989	
22	53.749000000000	839.564494472641	1006.208102237568	448.305238010581	1052.072538465126	1427.141124001125	276.098593744986	1131.208545326116	1360.455186866255	449.848847251932	1028.204950010138	1439.372595514763	610.143012901816	1010.901818976760	1491.549488601421	428.671107557793	1056.666600794680	941.491345616387	587.422748073358	1065.862133556304	956.419384800369	311.338114599120	1127.315431589178	760.788367128571	559.123536044599	1071.776108539960	639.980862290590	627.371243274460	1160.956935283507	601.487247071889	549.935833768914	1185.740446974355	516.456472056003	562.682471599632	1070.682812509853	729.797042739664	337.762738232764	960.949979211232	634.870684986349	265.350953388943	1020.902471995433	541.695819887149	330.541330623320	1006.920615489262	475.595992291781	336.952633409430	974.817618322261	408.594075336900	325.579141501867	874.485701431892	305.211773360285	271.224203578892	912.669073060820	187.412614537583	339.521600561086	1165.024454177580	425.572650785936	573.741493561916	1103.775910626968	316.531592056654	638.530919805312	1163.864759530206	225.161866880677	584.613553163610	1057.026595625235	44.509209424427	560.479403791039	1222.524827351245	112.874576328596	597.794071972030	1142.350006767879	41.739847466453	633.098433664874	1346.301851185190	72.062784340197	620.583259245438	775.535331016847	37.665925532776	381.969824488335	844.773625428345	34.207546736911	297.348146612893	929.493358071127	95.247395805537	321.492430049857	1056.597154559692	42.974814971083	284.983292796978	1115.683396624581	1096.787897606215	133.031095739104	1358.691670586665	1013.847696905341	171.209901374212	902.971447153288	1114.673427264971	719.057183261362	893.532431914458	854.548180796459	734.308747886730	
23	53.762285714286	842.653890657456	1004.399990555950	451.394263030624	1052.535399626159	1425.938051234667	279.009650462815	1132.313097699119	1359.979374192202	452.711946133800	1029.075424420898	1438.393319821715	613.116520739276	1011.423638210289	1490.378271975927	431.550436816355	1060.079378882631	939.921369874706	590.233562199982	1068.925973633765	955.456889104104	314.247254949018	1129.858777072291	757.810865529812	562.068089024220	1071.679860817084	637.197544520654	628.359047007805	1161.237110943786	598.559376499397	551.494699917163	1183.846755593958	513.313651722804	563.162633333503	1072.787664711656	728.234726077712	340.180915646110	962.341769110818	633.782908002197	267.644184642455	1021.939465830141	540.133377588822	332.502081866516	1007.779719927209	473.448502305915	338.455703952358	974.276483426532	406.902498635273	327.032489345120	872.089353273900	305.230937615130	272.396261220463	908.564762181474	186.528068262357	340.061960874868	1163.338185875015	422.298632590555	574.041178497212	1101.440888296677	313.077990105312	637.740737439289	1161.482214973996	221.960408532449	583.508363762816	1053.828385339472	43.113600604078	557.743565912158	1219.063106948330	109.518488120612	597.138666189969	1138.308995802654	40.035632976145	631.254433677780	1342.818323351666	67.361622089449	620.139220135184	770.054537021948	37.509226434127	381.906345972835	839.382977927675	34.043871509078	297.363952457555	924.180835171369	95.187868830575	321.533265196308	1051.305654898408	42.736546704798	284.958498560970	1118.007437212377	1095.507775402430	136.825571472556	1361.329376945379	1014.063197238388	176.036790461696	903.703039747858	1114.045142768417	722.100867675134	894.288497968130	853.810412901737	736.731358664311	
